<svg width="32" height="33" viewBox="0 0 32 33" fill="none" xmlns="http://www.w3.org/2000/svg">
<path d="M15.8399 0.660156C7.09164 0.660156 -6.10352e-05 7.75186 -6.10352e-05 16.5002C-6.10352e-05 25.2485 7.09164 32.3402 15.8399 32.3402C24.5882 32.3402 31.6799 25.2485 31.6799 16.5002C31.6799 7.75186 24.5882 0.660156 15.8399 0.660156ZM11.9624 23.0655H8.75484V12.7431H11.9624V23.0655ZM10.3388 11.4759C9.32574 11.4759 8.67069 10.7582 8.67069 9.87046C8.67069 8.96461 9.34554 8.26831 10.3801 8.26831C11.4146 8.26831 12.0482 8.96461 12.068 9.87046C12.068 10.7582 11.4146 11.4759 10.3388 11.4759ZM23.6774 23.0655H20.4698V17.345C20.4698 16.0134 20.0045 15.1092 18.8446 15.1092C17.9585 15.1092 17.4322 15.7214 17.1995 16.3104C17.1137 16.52 17.0923 16.817 17.0923 17.1123V23.0639H13.883V16.0349C13.883 14.7462 13.8418 13.6688 13.7989 12.7415H16.5857L16.7326 14.1753H16.7969C17.2193 13.5021 18.2539 12.5088 19.9847 12.5088C22.0951 12.5088 23.6774 13.9229 23.6774 16.9622V23.0655V23.0655Z" fill="white"/>
</svg>
