<svg width="32" height="33" viewBox="0 0 32 33" fill="none" xmlns="http://www.w3.org/2000/svg">
<path d="M15.8399 0.660156C7.09164 0.660156 -6.10352e-05 7.75186 -6.10352e-05 16.5002C-6.10352e-05 25.2485 7.09164 32.3402 15.8399 32.3402C24.5882 32.3402 31.6799 25.2485 31.6799 16.5002C31.6799 7.75186 24.5882 0.660156 15.8399 0.660156ZM22.2832 13.6358C22.2898 13.7711 22.2914 13.9064 22.2914 14.0384C22.2914 18.1634 19.1548 22.917 13.4161 22.917C11.7204 22.9198 10.0599 22.4328 8.63439 21.5145C8.87694 21.5442 9.12609 21.5558 9.37854 21.5558C10.8404 21.5558 12.1852 21.0591 13.2527 20.2209C12.6022 20.2081 11.9718 19.9927 11.4495 19.6047C10.9271 19.2166 10.5389 18.6753 10.3388 18.0561C10.806 18.1449 11.2873 18.1263 11.7463 18.0017C11.0402 17.8589 10.4052 17.4763 9.94896 16.9187C9.49275 16.3611 9.24342 15.663 9.24324 14.9426V14.9046C9.66399 15.1373 10.1458 15.2792 10.6573 15.2957C9.99531 14.855 9.52669 14.1781 9.34726 13.4033C9.16784 12.6286 9.29117 11.8146 9.69204 11.1278C10.4757 12.0914 11.453 12.8796 12.5607 13.4416C13.6683 14.0035 14.8817 14.3265 16.1221 14.3898C15.9644 13.7204 16.0323 13.0177 16.3152 12.3908C16.5981 11.764 17.0801 11.2482 17.6864 10.9236C18.2927 10.599 18.9892 10.4838 19.6678 10.5959C20.3463 10.708 20.9687 11.0412 21.4384 11.5436C22.1366 11.4054 22.8062 11.1493 23.4184 10.7862C23.1857 11.5091 22.6985 12.123 22.0472 12.5138C22.6657 12.4393 23.2697 12.273 23.8391 12.0204C23.4208 12.6472 22.8939 13.1943 22.2832 13.6358V13.6358Z" fill="white"/>
</svg>
